<svg width="1920" height="152" viewBox="0 0 1920 152" fill="none" xmlns="http://www.w3.org/2000/svg">
<path d="M1694.5 129.225L1920 128.73V152H1694L1694.5 129.225Z" fill="#F19B20"/>
<path d="M938.5 115.857L902 114.371L929 152H933L938.5 115.857Z" fill="#E65626"/>
<path d="M933 152L938.5 115.857C1176.1 129.72 1542.5 130.545 1696 129.225L1704 152H933Z" fill="#E97925"/>
<path d="M0 0L123 24.2606L140.5 151.505H0V0Z" fill="#7B2C7C"/>
<path d="M140.5 151.505C138.9 146.752 128.167 64.5299 123 24.2606C419.8 78.129 766 106.78 902 114.371L929 152C669.167 151.67 147.7 151.505 140.5 151.505Z" fill="#DA2228"/>
</svg>
