<svg xmlns="http://www.w3.org/2000/svg" width="64" height="64" viewBox="0 0 64 64" fill="none"><path d="M64 32C64 49.6731 49.6731 64 32 64C14.3269 64 0 49.6731 0 32C0 14.3269 14.3269 0 32 0C49.6731 0 64 14.3269 64 32Z" fill="#282828"></path><path d="M18 47H47V62C47 63.1046 46.1046 64 45 64H20C18.8954 64 18 63.1046 18 62V47Z" fill="#656565"></path><path d="M18 47H47V49H18V47Z" fill="#404040"></path><path d="M10 15C10 12.7909 11.7909 11 14 11H51C53.2091 11 55 12.7909 55 15V43C55 45.2091 53.2091 47 51 47H14C11.7909 47 10 45.2091 10 43V15Z" fill="white"></path><path fill-rule="evenodd" clip-rule="evenodd" d="M46.2116 24.4624C46.2116 23.2219 46.2548 22.4553 46.6038 21.7096C47.6278 21.8489 49.5925 22.1033 50.7661 21.7584C52.8871 21.1311 53.0267 18.5351 52.9968 17.0542C51.8 16.9567 50.3306 16.981 48.8479 17.2075C44.8385 17.7929 41.8764 20.8106 41.8764 25.7238V40.9547H46.2116V29.3721H49.1737C51.2182 29.3721 51.5075 27.9121 51.5075 25.7482H46.2116V24.4589V24.4624ZM34.659 33.3166C34.659 31.9646 34.659 30.6126 34.9682 29.7798C35.9023 29.8913 37.3019 29.9993 38.1464 29.7345C40.294 29.062 40.2607 26.574 40.2607 25.1349C39.0313 25.053 37.7969 25.115 36.5805 25.3196C32.9136 25.898 30.3239 28.7867 30.3239 33.6999V40.9547H34.6623V33.3166H34.659ZM23.3724 37.0555C19.8418 38.0033 17.3551 36.0659 17.3551 32.5047V29.3721C18.1863 28.835 19.1481 28.5615 20.1244 28.5846C24.3099 28.5846 25.1377 33.1842 23.3724 37.0555ZM21.3444 24.8666C19.7753 24.8666 18.3192 25.4764 17.3551 26.1071V17.096C15.6363 17.0716 13.7846 17.9288 13 18.6501V32.4385C13 38.0695 16.4209 41 20.7361 41C25.028 41 28.5586 37.3726 28.5586 32.4838C28.5586 28.494 25.8558 24.8666 21.3444 24.8666Z" fill="#DA2228"></path></svg>