<svg xmlns="http://www.w3.org/2000/svg" width="264" height="124" fill="none"><path fill="#E41E15" fill-rule="evenodd" d="M62.08 87.85c11.98-4.43 23.65-10.5 33.88-18.5a108.72 108.72 0 0 1-25.68-13.98 301.05 301.05 0 0 1-8.2 32.48Z" clip-rule="evenodd"/><path fill="#F49200" fill-rule="evenodd" d="M100.7 45.36c-5.16-5.38-9.18-12.04-12.01-19.27a81.97 81.97 0 0 1-14.03-2.64 278.29 278.29 0 0 1-4.38 31.92 89.66 89.66 0 0 0 30.42-10Z" clip-rule="evenodd"/><path fill="#EA590E" fill-rule="evenodd" d="M70.28 55.37a108.72 108.72 0 0 0 25.68 13.99 95.4 95.4 0 0 0 15.82-15.55 43.75 43.75 0 0 1-11.08-8.45 89.66 89.66 0 0 1-30.42 10.01Z" clip-rule="evenodd"/><path fill="#E74013" fill-rule="evenodd" d="M70.28 55.37a111.04 111.04 0 0 1-16.57-14.9c-3.9 4.92-8.31 9.54-13.04 13.63a83.12 83.12 0 0 0 29.6 1.27Z" clip-rule="evenodd"/><path fill="#00378B" fill-rule="evenodd" d="M47.8 122.19a63.43 63.43 0 0 0 41.14-3.8c-6.83-.7-13.7-2.07-20.48-4.02-6.5 3.14-13.4 5.79-20.65 7.81Z" clip-rule="evenodd"/><path fill="#00378B" fill-rule="evenodd" d="M29.33 96.15c4.71 10.4 10.9 19.5 18.48 26.03 2.17-3.8 4.3-8.11 6.35-12.84-8.7-3.6-17.07-8.08-24.83-13.2Z" clip-rule="evenodd"/><path fill="#005DA9" fill-rule="evenodd" d="M47.8 122.19a123.38 123.38 0 0 0 20.66-7.82c-4.83-1.4-9.61-3.08-14.3-5.03a131.35 131.35 0 0 1-6.35 12.84Z" clip-rule="evenodd"/><path fill="#7E1C7E" fill-rule="evenodd" d="M62.08 87.85a129.23 129.23 0 0 0 19.1 19.42 127.12 127.12 0 0 0 22.95-18.71c-12.86 3.28-27.57 2.88-42.05-.7ZM20.44 67.14a125.99 125.99 0 0 0 8.89 29c10.6-1.55 21.8-4.23 32.75-8.29a106.88 106.88 0 0 1-41.64-20.71Z" clip-rule="evenodd"/><path fill="#B5151E" fill-rule="evenodd" d="M62.08 87.85a182.57 182.57 0 0 1-21.4-33.75c-6.34 5.49-13.24 10.03-20.24 13.04a106.88 106.88 0 0 0 41.64 20.71Z" clip-rule="evenodd"/><path fill="#DC0018" fill-rule="evenodd" d="M18.17 45.32c.17 7.18.93 14.55 2.27 21.82 7-3.01 13.9-7.55 20.23-13.04a81.25 81.25 0 0 1-22.5-8.78Z" clip-rule="evenodd"/><path fill="#CD051B" fill-rule="evenodd" d="M70.28 55.37a83.12 83.12 0 0 1-29.6-1.27 182.53 182.53 0 0 0 21.4 33.75 301.05 301.05 0 0 0 8.2-32.48Z" clip-rule="evenodd"/><path fill="#EE7105" fill-rule="evenodd" d="M95.96 69.36a98.97 98.97 0 0 0 19.83 5.26c3.84-5.37 7.12-10.9 9.8-16.47a40 40 0 0 1-13.81-4.34 95.4 95.4 0 0 1-15.82 15.55Z" clip-rule="evenodd"/><path fill="#92127C" fill-rule="evenodd" d="M20.44 67.14A86.87 86.87 0 0 1 2 46.5 60.78 60.78 0 0 0 .68 71.09c6.42.37 13.13-1.1 19.76-3.95Z" clip-rule="evenodd"/><path fill="#C50C1C" fill-rule="evenodd" d="M20.44 67.14a139.97 139.97 0 0 1-2.27-21.82 81.1 81.1 0 0 1-12.56-8.9 62.76 62.76 0 0 0-3.6 10.09 86.87 86.87 0 0 0 18.43 20.63Z" clip-rule="evenodd"/><path fill="#004A99" fill-rule="evenodd" d="M.68 71.1a61.8 61.8 0 0 0 10.83 26.65c5.61-.17 11.61-.7 17.82-1.6C18.25 88.85 8.42 80.25.68 71.09Z" clip-rule="evenodd"/><path fill="#023187" fill-rule="evenodd" d="M20.44 67.14C13.8 69.98 7.1 71.46.68 71.09c7.74 9.17 17.57 17.75 28.65 25.06a125.99 125.99 0 0 1-8.9-29.01Z" clip-rule="evenodd"/><path fill="#005DA9" fill-rule="evenodd" d="M47.8 122.19c-7.58-6.55-13.76-15.64-18.47-26.04-6.2.9-12.2 1.42-17.82 1.6a62.45 62.45 0 0 0 29.85 22.5c2.14.76 4.29 1.4 6.45 1.94Z" clip-rule="evenodd"/><path fill="#004A99" fill-rule="evenodd" d="M68.46 114.37a116.21 116.21 0 0 0 20.48 4.02 63.47 63.47 0 0 0 5.07-2.56 79.7 79.7 0 0 1-12.83-8.56 125.62 125.62 0 0 1-12.72 7.1Z" clip-rule="evenodd"/><path fill="#DF3216" fill-rule="evenodd" d="M104.13 88.56a55.56 55.56 0 0 0 18.86-8.6c.46-1.46.85-2.94 1.19-4.42a93.06 93.06 0 0 1-8.4-.92c-3.44 4.8-7.33 9.49-11.65 13.94Z" clip-rule="evenodd"/><path fill="#F49200" fill-rule="evenodd" d="M125.58 58.15a110.62 110.62 0 0 1-9.8 16.47c2.78.43 5.58.74 8.4.92a60.75 60.75 0 0 0 1.4-17.39Z" clip-rule="evenodd"/><path fill="#9B1E3D" fill-rule="evenodd" d="M81.18 107.27A79.7 79.7 0 0 0 94 115.83a61.96 61.96 0 0 0 28.98-35.86 55.56 55.56 0 0 1-18.86 8.59 127.12 127.12 0 0 1-22.95 18.7Z" clip-rule="evenodd"/><path fill="#FAB000" fill-rule="evenodd" d="M74.66 23.45c4.38 1.25 9 2.1 14.03 2.64a73.15 73.15 0 0 1-4.85-22.51c-2.88-1.01-5.8-1.8-8.7-2.38.29 7.05.1 14.54-.48 22.25Z" clip-rule="evenodd"/><path fill="#F69C00" fill-rule="evenodd" d="M74.66 23.45c.58-7.71.77-15.2.47-22.25C73.62.9 72.1.66 70.58.47c-.01 6.25-1.68 13.03-4.6 19.83a66.13 66.13 0 0 0 8.68 3.15Z" clip-rule="evenodd"/><path fill="#E74013" fill-rule="evenodd" d="M18.17 45.32a81.25 81.25 0 0 0 22.5 8.78C33.5 39.5 28.54 24.46 26.91 11.15a62.68 62.68 0 0 0-5.56 4.3c-2.4 8.9-3.44 19.18-3.18 29.87Z" clip-rule="evenodd"/><path fill="#EC650A" fill-rule="evenodd" d="M53.71 40.47c-9.03-9.94-16-21.34-20.12-33.32a63.47 63.47 0 0 0-6.68 4c1.63 13.31 6.6 28.35 13.76 42.95 4.73-4.1 9.14-8.71 13.04-13.63Z" clip-rule="evenodd"/><path fill="#F49200" fill-rule="evenodd" d="M65.98 20.3c-8.26-3.66-15.86-9.1-23.95-16.78-2.9 1-5.72 2.22-8.44 3.63 4.11 11.98 11.09 23.38 20.12 33.32A90.21 90.21 0 0 0 65.98 20.3Z" clip-rule="evenodd"/><path fill="#F07C00" fill-rule="evenodd" d="M88.69 26.09c2.83 7.23 6.85 13.9 12.01 19.27 6.1-3.27 12.05-7.32 17.78-12.18a62 62 0 0 0-4.16-6.74c-9.73.49-18.12.44-25.63-.35Z" clip-rule="evenodd"/><path fill="#F49200" fill-rule="evenodd" d="M111.78 53.8a85.54 85.54 0 0 0 9.47-14.68 61.98 61.98 0 0 0-2.77-5.94 102.48 102.48 0 0 1-17.78 12.18 43.75 43.75 0 0 0 11.08 8.45Z" clip-rule="evenodd"/><path fill="#EA590E" fill-rule="evenodd" d="M125.58 58.15c-.41-6.57-1.9-13-4.33-19.03a85.54 85.54 0 0 1-9.47 14.69 40 40 0 0 0 13.8 4.34Z" clip-rule="evenodd"/><path fill="#F07C00" fill-rule="evenodd" d="M70.28 55.37c2.08-10.67 3.6-21.5 4.38-31.92-3-.86-5.88-1.9-8.68-3.15A90.21 90.21 0 0 1 53.7 40.47a111.04 111.04 0 0 0 16.57 14.9Z" clip-rule="evenodd"/><path fill="#00378B" fill-rule="evenodd" d="M62.08 87.85c-2.43 7.74-5.1 15-7.92 21.5 4.69 1.94 9.47 3.62 14.3 5.02 4.43-2.15 8.67-4.53 12.72-7.1-6.66-5.37-13.11-12-19.1-19.42Z" clip-rule="evenodd"/><path fill="#9B0B7C" fill-rule="evenodd" d="M62.08 87.85a163.16 163.16 0 0 1-32.75 8.3c7.76 5.1 16.13 9.59 24.83 13.2a220.67 220.67 0 0 0 7.92-21.5Z" clip-rule="evenodd"/><path fill="#CD051B" fill-rule="evenodd" d="M62.08 87.85c14.48 3.6 29.2 3.99 42.05.71 4.32-4.45 8.21-9.13 11.66-13.94a98.97 98.97 0 0 1-19.83-5.26c-10.23 8-21.9 14.06-33.88 18.5Z" clip-rule="evenodd"/><path fill="#EC650A" fill-rule="evenodd" d="M21.35 15.45A61.67 61.67 0 0 0 5.6 36.43a81.1 81.1 0 0 0 12.56 8.9c-.26-10.7.79-20.97 3.18-29.88Z" clip-rule="evenodd"/><path fill="#FEC200" fill-rule="evenodd" d="M114.33 26.44a62.45 62.45 0 0 0-30.5-22.86 73.15 73.15 0 0 0 4.86 22.5c7.51.8 15.9.85 25.64.36ZM70.58.47a63.42 63.42 0 0 0-28.55 3.05c8.09 7.69 15.7 13.12 23.95 16.78 2.92-6.8 4.59-13.58 4.6-19.83Z" clip-rule="evenodd"/><path fill="#1B1918" fill-rule="evenodd" d="M243.58 48.98c0-3.56.13-5.76 1.18-7.9 3.08.4 8.99 1.13 12.52.14 6.38-1.8 6.8-9.25 6.71-13.5-3.6-.28-8.02-.21-12.48.44-12.06 1.68-20.97 10.34-20.97 24.44v43.71h13.04V63.07h8.91c6.15 0 7.02-4.19 7.02-10.4h-15.93v-3.7Zm-34.75 25.41c0-3.88 0-7.76.93-10.15 2.81.32 7.02.63 9.56-.13 6.46-1.93 6.36-9.07 6.36-13.2a49.9 49.9 0 0 0-11.07.53c-11.03 1.66-18.82 9.95-18.82 24.05v20.82h13.05V74.39Zm-33.95 10.73c-10.62 2.72-18.1-2.84-18.1-13.06v-8.99a15.22 15.22 0 0 1 8.33-2.26c12.59 0 15.08 13.2 9.77 24.31Zm-6.1-34.98c-4.72 0-9.1 1.75-12 3.56V27.84c-5.17-.07-10.74 2.39-13.1 4.46v39.57c0 16.16 10.29 24.57 23.27 24.57 12.91 0 23.53-10.41 23.53-24.44 0-11.45-8.13-21.86-21.7-21.86Z" clip-rule="evenodd"/></svg>